<?xml version="1.0" encoding="UTF-8"?>
<svg version="1.1" xmlns="http://www.w3.org/2000/svg" width="512" height="512">
<path d="M0 0 C21.78 0 43.56 0 66 0 C66 21.78 66 43.56 66 66 C55.11 66 44.22 66 33 66 C33 76.89 33 87.78 33 99 C22.44 99 11.88 99 1 99 C1 131.01 1 163.02 1 196 C11.56 196 22.12 196 33 196 C33 206.56 33 217.12 33 228 C65.01 228 97.02 228 130 228 C130 217.44 130 206.88 130 196 C140.89 196 151.78 196 163 196 C163 185.11 163 174.22 163 163 C184.78 163 206.56 163 229 163 C229 184.78 229 206.56 229 229 C218.11 229 207.22 229 196 229 C196 250.78 196 272.56 196 295 C185.44 295 174.88 295 164 295 C164 305.56 164 316.12 164 327 C153.11 327 142.22 327 131 327 C131 337.89 131 348.78 131 360 C87.77 360 44.54 360 0 360 C0 349.11 0 338.22 0 327 C-21.78 327 -43.56 327 -66 327 C-66 316.44 -66 305.88 -66 295 C-76.56 295 -87.12 295 -98 295 C-98 273.22 -98 251.44 -98 229 C-108.89 229 -119.78 229 -131 229 C-131 196.66 -131 164.32 -131 131 C-120.11 131 -109.22 131 -98 131 C-98 109.22 -98 87.44 -98 65 C-87.44 65 -76.88 65 -66 65 C-66 54.44 -66 43.88 -66 33 C-44.22 33 -22.44 33 0 33 C0 22.11 0 11.22 0 0 Z M1 34 C1 44.23 1 54.46 1 65 C11.23 65 21.46 65 32 65 C32 54.77 32 44.54 32 34 C21.77 34 11.54 34 1 34 Z M-65 66 C-65 87.78 -65 109.56 -65 132 C-75.56 132 -86.12 132 -97 132 C-97 163.68 -97 195.36 -97 228 C-86.44 228 -75.88 228 -65 228 C-65 249.78 -65 271.56 -65 294 C-43.22 294 -21.44 294 1 294 C1 304.56 1 315.12 1 326 C43.57 326 86.14 326 130 326 C130 315.44 130 304.88 130 294 C140.89 294 151.78 294 163 294 C163 272.55 163 251.1 163 229 C152.44 229 141.88 229 131 229 C131 239.89 131 250.78 131 262 C98.33 262 65.66 262 32 262 C32 251.11 32 240.22 32 229 C21.44 229 10.88 229 0 229 C0 218.44 0 207.88 0 197 C-10.89 197 -21.78 197 -33 197 C-33 164.33 -33 131.66 -33 98 C-22.11 98 -11.22 98 0 98 C0 87.44 0 76.88 0 66 C-21.45 66 -42.9 66 -65 66 Z M164 197 C164 207.23 164 217.46 164 228 C174.23 228 184.46 228 195 228 C195 217.77 195 207.54 195 197 C184.77 197 174.54 197 164 197 Z " fill="#985DB6" transform="translate(207,76)"/>
</svg>
