<?xml version="1.0" encoding="UTF-8"?>
<svg version="1.1" xmlns="http://www.w3.org/2000/svg" width="512" height="512">
<path d="M0 0 C11.22 0 22.44 0 34 0 C34 25.41 34 50.82 34 77 C63.04 77 92.08 77 122 77 C122 51.59 122 26.18 122 0 C133.22 0 144.44 0 156 0 C156 36.63 156 73.26 156 111 C177.78 111 199.56 111 222 111 C222 99.78 222 88.56 222 77 C233.22 77 244.44 77 256 77 C256 66.11 256 55.22 256 44 C267.22 44 278.44 44 290 44 C290 55.22 290 66.44 290 78 C279.11 78 268.22 78 257 78 C257 89.22 257 100.44 257 112 C245.78 112 234.56 112 223 112 C223 133.78 223 155.56 223 178 C259.63 178 296.26 178 334 178 C334 189.22 334 200.44 334 212 C308.59 212 283.18 212 257 212 C257 241.04 257 270.08 257 300 C282.41 300 307.82 300 334 300 C334 311.22 334 322.44 334 334 C297.37 334 260.74 334 223 334 C223 355.78 223 377.56 223 400 C234.22 400 245.44 400 257 400 C257 411.22 257 422.44 257 434 C267.89 434 278.78 434 290 434 C290 445.22 290 456.44 290 468 C278.78 468 267.56 468 256 468 C256 457.11 256 446.22 256 435 C244.78 435 233.56 435 222 435 C222 423.78 222 412.56 222 401 C200.22 401 178.44 401 156 401 C156 437.63 156 474.26 156 512 C144.78 512 133.56 512 122 512 C122 486.59 122 461.18 122 435 C92.96 435 63.92 435 34 435 C34 460.41 34 485.82 34 512 C22.78 512 11.56 512 0 512 C0 475.37 0 438.74 0 401 C-21.78 401 -43.56 401 -66 401 C-66 412.22 -66 423.44 -66 435 C-77.22 435 -88.44 435 -100 435 C-100 445.89 -100 456.78 -100 468 C-111.22 468 -122.44 468 -134 468 C-134 456.78 -134 445.56 -134 434 C-123.11 434 -112.22 434 -101 434 C-101 422.78 -101 411.56 -101 400 C-89.78 400 -78.56 400 -67 400 C-67 378.22 -67 356.44 -67 334 C-103.63 334 -140.26 334 -178 334 C-178 322.78 -178 311.56 -178 300 C-152.59 300 -127.18 300 -101 300 C-101 270.96 -101 241.92 -101 212 C-126.41 212 -151.82 212 -178 212 C-178 200.78 -178 189.56 -178 178 C-141.37 178 -104.74 178 -67 178 C-67 156.22 -67 134.44 -67 112 C-78.22 112 -89.44 112 -101 112 C-101 100.78 -101 89.56 -101 78 C-111.89 78 -122.78 78 -134 78 C-134 66.78 -134 55.56 -134 44 C-122.78 44 -111.56 44 -100 44 C-100 54.89 -100 65.78 -100 77 C-88.78 77 -77.56 77 -66 77 C-66 88.22 -66 99.44 -66 111 C-44.22 111 -22.44 111 0 111 C0 74.37 0 37.74 0 0 Z " fill="#FED943" transform="translate(178,0)"/>
<path d="M0 0 C51.48 0 102.96 0 156 0 C156 36.63 156 73.26 156 111 C144.78 111 133.56 111 122 111 C122 85.59 122 60.18 122 34 C92.96 34 63.92 34 34 34 C34 59.41 34 84.82 34 111 C22.78 111 11.56 111 0 111 C0 74.37 0 37.74 0 0 Z " fill="#020200" transform="translate(178,401)"/>
<path d="M0 0 C36.63 0 73.26 0 111 0 C111 11.22 111 22.44 111 34 C85.59 34 60.18 34 34 34 C34 63.04 34 92.08 34 122 C59.41 122 84.82 122 111 122 C111 133.22 111 144.44 111 156 C74.37 156 37.74 156 0 156 C0 104.52 0 53.04 0 0 Z " fill="#020200" transform="translate(401,178)"/>
<path d="M0 0 C36.63 0 73.26 0 111 0 C111 51.48 111 102.96 111 156 C74.37 156 37.74 156 0 156 C0 144.78 0 133.56 0 122 C25.41 122 50.82 122 77 122 C77 92.96 77 63.92 77 34 C51.59 34 26.18 34 0 34 C0 22.78 0 11.56 0 0 Z " fill="#020200" transform="translate(0,178)"/>
<path d="M0 0 C11.22 0 22.44 0 34 0 C34 25.41 34 50.82 34 77 C63.04 77 92.08 77 122 77 C122 51.59 122 26.18 122 0 C133.22 0 144.44 0 156 0 C156 36.63 156 73.26 156 111 C104.52 111 53.04 111 0 111 C0 74.37 0 37.74 0 0 Z " fill="#020200" transform="translate(178,0)"/>
<path d="M0 0 C11.22 0 22.44 0 34 0 C34 21.78 34 43.56 34 66 C45.22 66 56.44 66 68 66 C68 77.22 68 88.44 68 100 C78.89 100 89.78 100 101 100 C101 111.22 101 122.44 101 134 C89.78 134 78.56 134 67 134 C67 123.11 67 112.22 67 101 C55.78 101 44.56 101 33 101 C33 89.78 33 78.56 33 67 C11.22 67 -10.56 67 -33 67 C-33 55.78 -33 44.56 -33 33 C-22.11 33 -11.22 33 0 33 C0 22.11 0 11.22 0 0 Z " fill="#010100" transform="translate(367,334)"/>
<path d="M0 0 C11.22 0 22.44 0 34 0 C34 10.89 34 21.78 34 33 C44.89 33 55.78 33 67 33 C67 44.22 67 55.44 67 67 C45.22 67 23.44 67 1 67 C1 78.22 1 89.44 1 101 C-10.22 101 -21.44 101 -33 101 C-33 111.89 -33 122.78 -33 134 C-44.22 134 -55.44 134 -67 134 C-67 122.78 -67 111.56 -67 100 C-56.11 100 -45.22 100 -34 100 C-34 88.78 -34 77.56 -34 66 C-22.78 66 -11.56 66 0 66 C0 44.22 0 22.44 0 0 Z " fill="#010100" transform="translate(111,334)"/>
<path d="M0 0 C11.22 0 22.44 0 34 0 C34 11.22 34 22.44 34 34 C23.11 34 12.22 34 1 34 C1 45.22 1 56.44 1 68 C-10.22 68 -21.44 68 -33 68 C-33 89.78 -33 111.56 -33 134 C-44.22 134 -55.44 134 -67 134 C-67 123.11 -67 112.22 -67 101 C-77.89 101 -88.78 101 -100 101 C-100 89.78 -100 78.56 -100 67 C-78.22 67 -56.44 67 -34 67 C-34 55.78 -34 44.56 -34 33 C-22.78 33 -11.56 33 0 33 C0 22.11 0 11.22 0 0 Z " fill="#010100" transform="translate(434,44)"/>
<path d="M0 0 C11.22 0 22.44 0 34 0 C34 10.89 34 21.78 34 33 C45.22 33 56.44 33 68 33 C68 44.22 68 55.44 68 67 C89.78 67 111.56 67 134 67 C134 78.22 134 89.44 134 101 C123.11 101 112.22 101 101 101 C101 111.89 101 122.78 101 134 C89.78 134 78.56 134 67 134 C67 112.22 67 90.44 67 68 C55.78 68 44.56 68 33 68 C33 56.78 33 45.56 33 34 C22.11 34 11.22 34 0 34 C0 22.78 0 11.56 0 0 Z " fill="#010100" transform="translate(44,44)"/>
<path d="M0 0 C0.33 0 0.66 0 1 0 C1 21.78 1 43.56 1 66 C12.22 66 23.44 66 35 66 C35 77.22 35 88.44 35 100 C45.89 100 56.78 100 68 100 C68 111.22 68 122.44 68 134 C56.78 134 45.56 134 34 134 C34 123.11 34 112.22 34 101 C22.78 101 11.56 101 0 101 C0 89.78 0 78.56 0 67 C-21.78 67 -43.56 67 -66 67 C-66 66.67 -66 66.34 -66 66 C-44.22 66 -22.44 66 0 66 C0 44.22 0 22.44 0 0 Z " fill="#060501" transform="translate(400,334)"/>
<path d="M0 0 C0.33 0 0.66 0 1 0 C1 21.78 1 43.56 1 66 C22.78 66 44.56 66 67 66 C67 66.33 67 66.66 67 67 C45.22 67 23.44 67 1 67 C1 78.22 1 89.44 1 101 C-10.22 101 -21.44 101 -33 101 C-33 111.89 -33 122.78 -33 134 C-44.22 134 -55.44 134 -67 134 C-67 122.78 -67 111.56 -67 100 C-56.11 100 -45.22 100 -34 100 C-34 88.78 -34 77.56 -34 66 C-22.78 66 -11.56 66 0 66 C0 44.22 0 22.44 0 0 Z " fill="#060501" transform="translate(111,334)"/>
<path d="M0 0 C11.22 0 22.44 0 34 0 C34 11.22 34 22.44 34 34 C23.11 34 12.22 34 1 34 C1 45.22 1 56.44 1 68 C-10.22 68 -21.44 68 -33 68 C-33 89.78 -33 111.56 -33 134 C-33.33 134 -33.66 134 -34 134 C-34 112.22 -34 90.44 -34 68 C-55.78 68 -77.56 68 -100 68 C-100 67.67 -100 67.34 -100 67 C-78.22 67 -56.44 67 -34 67 C-34 55.78 -34 44.56 -34 33 C-22.78 33 -11.56 33 0 33 C0 22.11 0 11.22 0 0 Z " fill="#060501" transform="translate(434,44)"/>
<path d="M0 0 C11.22 0 22.44 0 34 0 C34 10.89 34 21.78 34 33 C45.22 33 56.44 33 68 33 C68 44.22 68 55.44 68 67 C89.78 67 111.56 67 134 67 C134 67.33 134 67.66 134 68 C112.22 68 90.44 68 68 68 C68 89.78 68 111.56 68 134 C67.67 134 67.34 134 67 134 C67 112.22 67 90.44 67 68 C55.78 68 44.56 68 33 68 C33 56.78 33 45.56 33 34 C22.11 34 11.22 34 0 34 C0 22.78 0 11.56 0 0 Z " fill="#060501" transform="translate(44,44)"/>
<path d="M0 0 C10.89 0 21.78 0 33 0 C33 10.89 33 21.78 33 33 C22.11 33 11.22 33 0 33 C0 22.11 0 11.22 0 0 Z " fill="#000000" transform="translate(401,401)"/>
<path d="M0 0 C10.89 0 21.78 0 33 0 C33 10.89 33 21.78 33 33 C22.11 33 11.22 33 0 33 C0 22.11 0 11.22 0 0 Z " fill="#000000" transform="translate(78,401)"/>
<path d="M0 0 C10.89 0 21.78 0 33 0 C33 10.89 33 21.78 33 33 C22.11 33 11.22 33 0 33 C0 22.11 0 11.22 0 0 Z " fill="#000000" transform="translate(401,78)"/>
<path d="M0 0 C10.89 0 21.78 0 33 0 C33 10.89 33 21.78 33 33 C22.11 33 11.22 33 0 33 C0 22.11 0 11.22 0 0 Z " fill="#000000" transform="translate(78,78)"/>
<path d="M0 0 C0.33 0 0.66 0 1 0 C1 21.78 1 43.56 1 66 C12.22 66 23.44 66 35 66 C35.020625 71.589375 35.04125 77.17875 35.0625 82.9375 C35.071604 84.70343506 35.08070801 86.46937012 35.09008789 88.28881836 C35.09300714 89.68082605 35.09555567 91.07283459 35.09765625 92.46484375 C35.10277222 93.19384888 35.10788818 93.922854 35.11315918 94.6739502 C35.11347011 96.44970076 35.06228515 98.22534208 35 100 C34 101 34 101 30.76538086 101.11352539 C29.33185875 101.11327438 27.89833058 101.10771608 26.46484375 101.09765625 C25.46378601 101.09614563 25.46378601 101.09614563 24.44250488 101.09460449 C21.9408192 101.08935808 19.43915794 101.07539691 16.9375 101.0625 C11.348125 101.041875 5.75875 101.02125 0 101 C0 89.78 0 78.56 0 67 C-21.78 67 -43.56 67 -66 67 C-66 66.67 -66 66.34 -66 66 C-44.22 66 -22.44 66 0 66 C0 44.22 0 22.44 0 0 Z M1 67 C1 77.89 1 88.78 1 100 C11.89 100 22.78 100 34 100 C34 89.11 34 78.22 34 67 C23.11 67 12.22 67 1 67 Z " fill="#564A16" transform="translate(400,334)"/>
<path d="M0 0 C0.33 0 0.66 0 1 0 C1 21.78 1 43.56 1 66 C22.78 66 44.56 66 67 66 C67 66.33 67 66.66 67 67 C45.22 67 23.44 67 1 67 C1 78.22 1 89.44 1 101 C-4.589375 101.020625 -10.17875 101.04125 -15.9375 101.0625 C-17.70343506 101.071604 -19.46937012 101.08070801 -21.28881836 101.09008789 C-22.68082605 101.09300714 -24.07283459 101.09555567 -25.46484375 101.09765625 C-26.19384888 101.10277222 -26.922854 101.10788818 -27.6739502 101.11315918 C-29.44970076 101.11347011 -31.22534208 101.06228515 -33 101 C-34 100 -34 100 -34.11352539 96.76538086 C-34.11327438 95.33185875 -34.10771608 93.89833058 -34.09765625 92.46484375 C-34.09664917 91.79747192 -34.09564209 91.1301001 -34.09460449 90.44250488 C-34.08935808 87.9408192 -34.07539691 85.43915794 -34.0625 82.9375 C-34.041875 77.348125 -34.02125 71.75875 -34 66 C-22.78 66 -11.56 66 0 66 C0 44.22 0 22.44 0 0 Z M-33 67 C-33 77.89 -33 88.78 -33 100 C-22.11 100 -11.22 100 0 100 C0 89.11 0 78.22 0 67 C-10.89 67 -21.78 67 -33 67 Z " fill="#564A16" transform="translate(111,334)"/>
<path d="M0 0 C8.3840625 -0.0309375 8.3840625 -0.0309375 16.9375 -0.0625 C18.70343506 -0.071604 20.46937012 -0.08070801 22.28881836 -0.09008789 C23.68082605 -0.09300714 25.07283459 -0.09555567 26.46484375 -0.09765625 C27.55835144 -0.1053302 27.55835144 -0.1053302 28.6739502 -0.11315918 C30.44970076 -0.11347011 32.22534208 -0.06228515 34 0 C35 1 35 1 35.11352539 4.23461914 C35.11327438 5.66814125 35.10771608 7.10166942 35.09765625 8.53515625 C35.09664917 9.20252808 35.09564209 9.8698999 35.09460449 10.55749512 C35.08935808 13.0591808 35.07539691 15.56084206 35.0625 18.0625 C35.041875 23.651875 35.02125 29.24125 35 35 C23.78 35 12.56 35 1 35 C1 56.78 1 78.56 1 101 C0.67 101 0.34 101 0 101 C0 79.22 0 57.44 0 35 C-21.78 35 -43.56 35 -66 35 C-66 34.67 -66 34.34 -66 34 C-44.22 34 -22.44 34 0 34 C0 22.78 0 11.56 0 0 Z M1 1 C1 11.89 1 22.78 1 34 C11.89 34 22.78 34 34 34 C34 23.11 34 12.22 34 1 C23.11 1 12.22 1 1 1 Z " fill="#564A16" transform="translate(400,77)"/>
<path d="M0 0 C1.43352211 0.00025101 2.86705028 0.00580931 4.30053711 0.01586914 C5.30159485 0.01737976 5.30159485 0.01737976 6.32287598 0.0189209 C8.82456166 0.02416731 11.32622292 0.03812848 13.82788086 0.05102539 C22.21194336 0.08196289 22.21194336 0.08196289 30.76538086 0.11352539 C30.76538086 11.33352539 30.76538086 22.55352539 30.76538086 34.11352539 C52.54538086 34.11352539 74.32538086 34.11352539 96.76538086 34.11352539 C96.76538086 34.44352539 96.76538086 34.77352539 96.76538086 35.11352539 C74.98538086 35.11352539 53.20538086 35.11352539 30.76538086 35.11352539 C30.76538086 56.89352539 30.76538086 78.67352539 30.76538086 101.11352539 C30.43538086 101.11352539 30.10538086 101.11352539 29.76538086 101.11352539 C29.76538086 79.33352539 29.76538086 57.55352539 29.76538086 35.11352539 C18.54538086 35.11352539 7.32538086 35.11352539 -4.23461914 35.11352539 C-4.25524414 29.52415039 -4.27586914 23.93477539 -4.29711914 18.17602539 C-4.30622314 16.41009033 -4.31532715 14.64415527 -4.32470703 12.82470703 C-4.32762628 11.43269934 -4.33017482 10.04069081 -4.33227539 8.64868164 C-4.33994934 7.55517395 -4.33994934 7.55517395 -4.34777832 6.4395752 C-4.34808926 4.66382463 -4.29690429 2.88818331 -4.23461914 1.11352539 C-3.23461914 0.11352539 -3.23461914 0.11352539 0 0 Z M-3.23461914 1.11352539 C-3.23461914 12.00352539 -3.23461914 22.89352539 -3.23461914 34.11352539 C7.65538086 34.11352539 18.54538086 34.11352539 29.76538086 34.11352539 C29.76538086 23.22352539 29.76538086 12.33352539 29.76538086 1.11352539 C18.87538086 1.11352539 7.98538086 1.11352539 -3.23461914 1.11352539 Z " fill="#564A16" transform="translate(81.234619140625,76.886474609375)"/>
</svg>
